# Blender v2.80 (sub 75) OBJ File: 'FuturisticHome.blend'
# www.blender.org
mtllib FuturisticHome.mtl
o Cube.009
v -0.000000 15.831002 -0.224317
v 0.224317 15.831002 0.000000
v -0.224317 15.831002 0.000000
v -0.000000 15.831002 0.224317
v 0.000000 19.310831 -0.022196
v 0.022196 19.310831 0.000000
v -0.022196 19.310831 0.000000
v 0.000000 19.310831 0.022196
v -0.073480 16.199995 0.000000
v -0.000000 16.199995 0.073480
v -0.000000 16.199995 -0.073480
v 0.073480 16.199995 0.000000
v 0.662464 1.184541 -0.662464
v 0.799703 0.008711 -0.799703
v 0.662464 1.184541 0.662464
v 0.799703 0.008711 0.799703
v -0.662464 1.184541 -0.662464
v -0.799703 0.008712 -0.799703
v -0.662464 1.184541 0.662464
v -0.799703 0.008712 0.799703
v -1.000000 0.000000 0.000000
v 0.828388 1.191756 0.000000
v -0.828388 1.191756 0.000000
v 1.000000 -0.000000 0.000000
v 0.000000 0.000000 -1.000000
v 0.000000 1.191756 0.828388
v 0.000000 0.000000 1.000000
v 0.000000 1.191756 -0.828388
v 0.000000 0.000000 0.000000
v -0.000000 10.851459 0.839134
v 0.000000 5.598227 0.664996
v -0.531800 5.592433 0.531800
v 0.664996 5.598227 0.000000
v 0.531800 5.592433 0.531800
v -0.664996 5.598227 0.000000
v -0.531800 5.592433 -0.531800
v 0.000000 5.598227 -0.664996
v 0.531800 5.592433 -0.531800
v 0.000000 12.393267 4.502458
v -0.671058 10.844148 0.671058
v 0.839134 10.851459 0.000000
v 0.671058 10.844148 0.671058
v -0.839134 10.851459 0.000000
v -0.671058 10.844148 -0.671058
v -0.000000 10.851459 -0.839134
v 0.671058 10.844148 -0.671058
v 0.000000 13.696012 5.845825
v -3.600631 12.354044 3.600631
v 4.502458 12.393267 0.000000
v 3.600631 12.354044 3.600631
v -4.502458 12.393267 0.000000
v -3.600631 12.354044 -3.600631
v 0.000000 12.393267 -4.502458
v 3.600631 12.354044 -3.600631
v 0.000000 14.056978 5.994729
v -4.674926 13.645084 4.674926
v 5.845825 13.696012 0.000000
v 4.674927 13.645084 4.674927
v -5.845825 13.696012 0.000000
v -4.674926 13.645084 -4.674926
v 0.000000 13.696012 -5.845825
v 4.674927 13.645084 -4.674927
v -4.794005 14.004754 4.794005
v 5.994729 14.056978 0.000000
v 4.794005 14.004754 4.794005
v -5.994729 14.056978 0.000000
v -4.794005 14.004754 -4.794005
v 0.000000 14.056978 -5.994729
v 4.794005 14.004754 -4.794005
v 0.000000 15.550562 3.587186
v 0.000000 14.330381 5.855821
v -4.682920 14.279368 4.682920
v 5.855822 14.330381 0.000000
v 4.682920 14.279368 4.682920
v -5.855821 14.330381 0.000000
v -4.682920 14.279368 -4.682920
v 0.000000 14.330381 -5.855821
v 4.682920 14.279368 -4.682920
v -0.000000 15.895583 1.217611
v -2.868684 15.519313 2.868685
v 3.587186 15.550562 0.000000
v 2.868684 15.519313 2.868684
v -3.587186 15.550562 0.000000
v -2.868685 15.519313 -2.868685
v 0.000000 15.550562 -3.587186
v 2.868684 15.519313 -2.868684
v -0.973727 15.884976 0.973727
v 1.217611 15.895583 0.000000
v 0.973728 15.884976 0.973728
v -1.217611 15.895583 0.000000
v -0.973727 15.884976 -0.973727
v -0.000000 15.895583 -1.217611
v 0.973728 15.884976 -0.973728
v 0.000000 15.895583 -0.000000
v -2.376835 11.627627 0.000000
v -1.900763 11.606922 1.900763
v 0.000000 11.627627 2.376835
v 1.900763 11.606922 1.900763
v 0.000000 11.627627 -2.376835
v 1.900763 11.606922 -1.900763
v 2.376835 11.627627 0.000000
v -1.900763 11.606922 -1.900763
v 8.149999 13.909999 0.000000
v 7.899999 14.159999 0.000000
v 7.649999 13.909999 0.000000
v 7.899999 13.659999 0.000000
v 5.762919 13.909999 -5.762920
v 5.586143 14.159999 -5.586143
v 5.409366 13.909999 -5.409367
v 5.586143 13.659999 -5.586143
v 0.000000 13.909999 -8.150000
v 0.000000 14.159999 -7.900000
v 0.000000 13.909999 -7.650000
v 0.000000 13.659999 -7.900000
v -5.762922 13.909999 -5.762919
v -5.586145 14.159999 -5.586142
v -5.409369 13.909999 -5.409366
v -5.586145 13.659999 -5.586142
v -8.150001 13.909999 -0.000001
v -7.900001 14.159999 -0.000001
v -7.650001 13.909999 -0.000001
v -7.900001 13.659999 -0.000001
v -5.762922 13.909999 5.762919
v -5.586145 14.159999 5.586142
v -5.409369 13.909999 5.409366
v -5.586145 13.659999 5.586142
v 0.000000 13.909999 8.150000
v 0.000000 14.159999 7.900000
v 0.000000 13.909999 7.650000
v 0.000000 13.659999 7.900000
v 5.762917 13.909999 5.762923
v 5.586140 14.159999 5.586146
v 5.409363 13.909999 5.409369
v 5.586140 13.659999 5.586146
v 5.462378 13.688878 0.000000
v 5.462379 13.913195 0.224317
v 5.462379 13.913195 -0.224317
v 5.462378 14.137512 0.000000
v 7.886988 13.688878 0.000000
v 7.886988 13.913195 0.224317
v 7.886988 13.913195 -0.224317
v 7.886988 14.137512 0.000000
v -7.913499 13.688877 0.000000
v -7.913499 13.913195 0.224317
v -7.913499 13.913195 -0.224317
v -7.913499 14.137511 0.000000
v -5.488888 13.688877 0.000000
v -5.488889 13.913195 0.224317
v -5.488889 13.913195 -0.224317
v -5.488888 14.137511 0.000000
v -0.013256 13.688877 -5.475634
v 0.211061 13.913195 -5.475634
v -0.237572 13.913195 -5.475634
v -0.013256 14.137512 -5.475634
v -0.013257 13.688877 -7.900244
v 0.211060 13.913195 -7.900244
v -0.237573 13.913195 -7.900244
v -0.013257 14.137512 -7.900244
v -0.013256 13.688877 7.900244
v 0.211061 13.913195 7.900244
v -0.237572 13.913195 7.900244
v -0.013256 14.137512 7.900244
v -0.013255 13.688877 5.475634
v 0.211062 13.913195 5.475634
v -0.237572 13.913195 5.475634
v -0.013255 14.137512 5.475634
v 3.858602 13.688878 -3.871857
v 4.017219 13.913195 -3.713241
v 3.699986 13.913195 -4.030473
v 3.858602 14.137512 -3.871857
v 5.573061 13.688878 -5.586316
v 5.731677 13.913195 -5.427700
v 5.414444 13.913195 -5.744932
v 5.573061 14.137512 -5.586316
v -5.599571 13.688877 5.586316
v -5.440955 13.913195 5.744932
v -5.758187 13.913195 5.427700
v -5.599571 14.137511 5.586316
v -3.885113 13.688877 3.871858
v -3.726497 13.913195 4.030474
v -4.043729 13.913195 3.713242
v -3.885113 14.137511 3.871858
v -3.885113 13.688877 -3.871858
v -3.726497 13.913195 -4.030474
v -4.043729 13.913195 -3.713242
v -3.885113 14.137511 -3.871858
v -5.599571 13.688877 -5.586316
v -5.440955 13.913195 -5.744932
v -5.758187 13.913195 -5.427700
v -5.599571 14.137511 -5.586316
v 5.573061 13.688878 5.586316
v 5.731677 13.913195 5.427700
v 5.414445 13.913195 5.744932
v 5.573061 14.137512 5.586316
v 3.858603 13.688878 3.871857
v 4.017219 13.913195 3.713241
v 3.699986 13.913195 4.030473
v 3.858603 14.137512 3.871857
vt 0.375000 0.000000
vt 0.625000 0.000000
vt 0.625000 0.250000
vt 0.375000 0.250000
vt 0.375000 0.287500
vt 0.625000 0.287500
vt 0.625000 0.500000
vt 0.375000 0.500000
vt 0.625000 0.750000
vt 0.375000 0.750000
vt 0.375000 0.962500
vt 0.625000 0.962500
vt 0.625000 1.000000
vt 0.375000 1.000000
vt 0.162500 0.500000
vt 0.162500 0.750000
vt 0.837500 0.500000
vt 0.875000 0.500000
vt 0.875000 0.750000
vt 0.837500 0.750000
vt 0.125000 0.500000
vt 0.125000 0.750000
vt 0.625000 0.625000
vt 0.625000 0.500000
vt 0.625000 0.500000
vt 0.625000 0.625000
vt 0.375000 0.375000
vt 0.625000 0.375000
vt 0.375000 0.500000
vt 0.375000 0.625000
vt 0.625000 0.750000
vt 0.375000 0.750000
vt 0.500000 0.875000
vt 0.625000 0.875000
vt 0.625000 1.000000
vt 0.500000 1.000000
vt 0.125000 0.625000
vt 0.375000 0.625000
vt 0.375000 0.750000
vt 0.125000 0.750000
vt 0.625000 0.625000
vt 0.875000 0.625000
vt 0.875000 0.750000
vt 0.625000 0.750000
vt 0.125000 0.500000
vt 0.375000 0.500000
vt 0.500000 0.750000
vt 0.375000 0.625000
vt 0.375000 0.750000
vt 0.625000 0.750000
vt 0.375000 0.875000
vt 0.625000 0.500000
vt 0.875000 0.500000
vt 0.375000 1.000000
vt 0.375000 0.250000
vt 0.625000 0.250000
vt 0.375000 0.500000
vt 0.375000 0.500000
vt 0.375000 0.625000
vt 0.875000 0.625000
vt 0.875000 0.500000
vt 0.875000 0.500000
vt 0.875000 0.625000
vt 0.375000 0.750000
vt 0.875000 0.750000
vt 0.875000 0.750000
vt 0.625000 0.250000
vt 0.625000 0.375000
vt 0.375000 0.750000
vt 0.375000 0.625000
vt 0.375000 0.625000
vt 0.375000 0.750000
vt 0.875000 0.750000
vt 0.875000 0.625000
vt 0.875000 0.625000
vt 0.875000 0.750000
vt 0.625000 0.625000
vt 0.625000 0.500000
vt 0.625000 0.500000
vt 0.625000 0.625000
vt 0.625000 0.375000
vt 0.625000 0.250000
vt 0.625000 0.250000
vt 0.625000 0.375000
vt 0.625000 0.625000
vt 0.625000 0.750000
vt 0.625000 0.375000
vt 0.625000 0.500000
vt 0.625000 0.250000
vt 0.625000 0.250000
vt 0.625000 0.375000
vt 0.625000 0.500000
vt 0.625000 0.750000
vt 0.625000 0.625000
vt 0.625000 0.750000
vt 0.375000 0.500000
vt 0.375000 0.500000
vt 0.375000 0.625000
vt 0.875000 0.500000
vt 0.875000 0.500000
vt 0.375000 0.500000
vt 0.625000 0.750000
vt 0.625000 0.375000
vt 0.625000 0.500000
vt 0.625000 0.625000
vt 0.625000 0.750000
vt 0.375000 0.500000
vt 0.375000 0.625000
vt 0.875000 0.625000
vt 0.875000 0.500000
vt 0.875000 0.500000
vt 0.875000 0.625000
vt 0.875000 0.750000
vt 0.375000 0.750000
vt 0.875000 0.500000
vt 0.875000 0.625000
vt 0.375000 0.750000
vt 0.375000 0.625000
vt 0.375000 0.750000
vt 0.875000 0.750000
vt 0.875000 0.750000
vt 0.625000 0.500000
vt 0.625000 0.625000
vt 0.625000 0.250000
vt 0.875000 0.625000
vt 0.875000 0.750000
vt 0.625000 0.500000
vt 0.625000 0.625000
vt 0.625000 0.375000
vt 0.625000 0.250000
vt 0.625000 0.250000
vt 0.625000 0.375000
vt 0.375000 0.500000
vt 0.625000 0.750000
vt 0.625000 0.250000
vt 0.625000 0.375000
vt 0.625000 0.500000
vt 0.625000 0.750000
vt 0.625000 0.625000
vt 0.625000 0.750000
vt 0.375000 0.625000
vt 0.375000 0.500000
vt 0.375000 0.500000
vt 0.375000 0.625000
vt 0.375000 0.750000
vt 0.875000 0.500000
vt 0.500000 0.125000
vt 0.625000 0.125000
vt 0.625000 0.250000
vt 0.500000 0.250000
vt 0.500000 0.000000
vt 0.625000 0.000000
vt 0.375000 0.000000
vt 0.375000 0.125000
vt 0.375000 0.250000
vt 0.875000 0.625000
vt 0.875000 0.750000
vt 0.375000 0.750000
vt 0.875000 0.500000
vt 0.500000 0.500000
vt 0.625000 0.500000
vt 0.625000 0.750000
vt 0.500000 0.750000
vt 0.625000 1.000000
vt 0.500000 1.000000
vt 0.500000 0.000000
vt 0.625000 0.000000
vt 0.625000 0.250000
vt 0.500000 0.250000
vt 0.750000 0.500000
vt 0.750000 0.750000
vt 0.750000 1.000000
vt 0.750000 0.000000
vt 0.750000 0.250000
vt 0.875000 0.500000
vt 0.875000 0.750000
vt 0.875000 1.000000
vt 0.875000 0.000000
vt 0.875000 0.250000
vt 1.000000 0.500000
vt 1.000000 0.750000
vt 1.000000 1.000000
vt 1.000000 0.000000
vt 1.000000 0.250000
vt 0.000000 0.500000
vt 0.125000 0.500000
vt 0.125000 0.750000
vt 0.000000 0.750000
vt 0.125000 1.000000
vt 0.000000 1.000000
vt 0.000000 0.000000
vt 0.125000 0.000000
vt 0.125000 0.250000
vt 0.000000 0.250000
vt 0.250000 0.500000
vt 0.250000 0.750000
vt 0.250000 1.000000
vt 0.250000 0.000000
vt 0.250000 0.250000
vt 0.375000 0.500000
vt 0.375000 0.750000
vt 0.375000 1.000000
vt 0.375000 0.000000
vt 0.375000 0.250000
vt 0.375000 0.000000
vt 0.625000 0.000000
vt 0.625000 0.250000
vt 0.375000 0.250000
vt 0.625000 0.500000
vt 0.375000 0.500000
vt 0.625000 0.750000
vt 0.375000 0.750000
vt 0.625000 1.000000
vt 0.375000 1.000000
vt 0.125000 0.500000
vt 0.125000 0.750000
vt 0.875000 0.500000
vt 0.875000 0.750000
vt 0.375000 0.000000
vt 0.625000 0.000000
vt 0.625000 0.250000
vt 0.375000 0.250000
vt 0.625000 0.500000
vt 0.375000 0.500000
vt 0.625000 0.750000
vt 0.375000 0.750000
vt 0.625000 1.000000
vt 0.375000 1.000000
vt 0.125000 0.500000
vt 0.125000 0.750000
vt 0.875000 0.500000
vt 0.875000 0.750000
vt 0.375000 0.000000
vt 0.625000 0.000000
vt 0.625000 0.250000
vt 0.375000 0.250000
vt 0.625000 0.500000
vt 0.375000 0.500000
vt 0.625000 0.750000
vt 0.375000 0.750000
vt 0.625000 1.000000
vt 0.375000 1.000000
vt 0.125000 0.500000
vt 0.125000 0.750000
vt 0.875000 0.500000
vt 0.875000 0.750000
vt 0.375000 0.000000
vt 0.625000 0.000000
vt 0.625000 0.250000
vt 0.375000 0.250000
vt 0.625000 0.500000
vt 0.375000 0.500000
vt 0.625000 0.750000
vt 0.375000 0.750000
vt 0.625000 1.000000
vt 0.375000 1.000000
vt 0.125000 0.500000
vt 0.125000 0.750000
vt 0.875000 0.500000
vt 0.875000 0.750000
vt 0.375000 0.000000
vt 0.625000 0.000000
vt 0.625000 0.250000
vt 0.375000 0.250000
vt 0.625000 0.500000
vt 0.375000 0.500000
vt 0.625000 0.750000
vt 0.375000 0.750000
vt 0.625000 1.000000
vt 0.375000 1.000000
vt 0.125000 0.500000
vt 0.125000 0.750000
vt 0.875000 0.500000
vt 0.875000 0.750000
vt 0.375000 0.000000
vt 0.625000 0.000000
vt 0.625000 0.250000
vt 0.375000 0.250000
vt 0.625000 0.500000
vt 0.375000 0.500000
vt 0.625000 0.750000
vt 0.375000 0.750000
vt 0.625000 1.000000
vt 0.375000 1.000000
vt 0.125000 0.500000
vt 0.125000 0.750000
vt 0.875000 0.500000
vt 0.875000 0.750000
vt 0.375000 0.000000
vt 0.625000 0.000000
vt 0.625000 0.250000
vt 0.375000 0.250000
vt 0.625000 0.500000
vt 0.375000 0.500000
vt 0.625000 0.750000
vt 0.375000 0.750000
vt 0.625000 1.000000
vt 0.375000 1.000000
vt 0.125000 0.500000
vt 0.125000 0.750000
vt 0.875000 0.500000
vt 0.875000 0.750000
vt 0.375000 0.000000
vt 0.625000 0.000000
vt 0.625000 0.250000
vt 0.375000 0.250000
vt 0.625000 0.500000
vt 0.375000 0.500000
vt 0.625000 0.750000
vt 0.375000 0.750000
vt 0.625000 1.000000
vt 0.375000 1.000000
vt 0.125000 0.500000
vt 0.125000 0.750000
vt 0.875000 0.500000
vt 0.875000 0.750000
vn 0.0000 -1.0000 0.0000
vn -0.7071 0.0117 0.7071
vn 0.0000 1.0000 0.0000
vn 0.6793 0.2777 -0.6793
vn -0.7071 0.0117 -0.7071
vn 0.6793 0.2777 0.6793
vn 0.7071 0.0117 0.7071
vn -0.6793 0.2777 -0.6793
vn 0.7071 0.0117 -0.7071
vn -0.6793 0.2777 0.6793
vn -0.9693 0.0359 0.2432
vn -0.2405 0.1393 0.9606
vn -0.9606 0.1393 -0.2405
vn 0.0054 -1.0000 0.0054
vn 0.9606 0.1393 0.2405
vn 0.2405 0.1393 -0.9606
vn 0.9606 0.1393 -0.2405
vn 0.0054 -1.0000 -0.0054
vn -0.9606 0.1393 0.2405
vn 0.9693 0.0359 0.2432
vn -0.9693 0.0359 -0.2432
vn -0.0054 -1.0000 -0.0054
vn -0.2405 0.1393 -0.9606
vn -0.0054 -1.0000 0.0054
vn 0.2405 0.1393 0.9606
vn 0.9693 0.0359 -0.2432
vn 0.9696 -0.0321 -0.2425
vn -0.2425 -0.0321 -0.9696
vn 0.9696 -0.0321 0.2425
vn 0.2425 -0.0321 -0.9696
vn -0.2432 0.0359 -0.9693
vn 0.2432 0.0359 0.9693
vn 0.2432 0.0359 -0.9693
vn -0.2432 0.0359 0.9693
vn 0.3379 -0.9382 0.0744
vn 0.0744 -0.9382 -0.3379
vn -0.3379 -0.9382 0.0744
vn 0.0744 -0.9382 0.3379
vn -0.9696 -0.0321 -0.2425
vn -0.2425 -0.0321 0.9696
vn 0.2425 -0.0321 0.9696
vn -0.9696 -0.0321 0.2425
vn 0.1643 -0.7081 0.6867
vn -0.1643 -0.7081 0.6867
vn -0.6867 -0.7081 -0.1643
vn 0.6867 -0.7081 -0.1643
vn -0.0744 -0.9382 -0.3379
vn 0.3379 -0.9382 -0.0744
vn -0.3379 -0.9382 -0.0744
vn -0.0744 -0.9382 0.3379
vn -0.2217 -0.3718 0.9014
vn -0.9014 -0.3718 -0.2217
vn 0.9014 -0.3718 -0.2217
vn -0.2217 -0.3718 -0.9014
vn -0.6867 -0.7081 0.1643
vn 0.1643 -0.7081 -0.6867
vn 0.6867 -0.7081 0.1643
vn -0.1643 -0.7081 -0.6867
vn -0.2225 0.4416 -0.8692
vn 0.8692 0.4416 0.2225
vn 0.2225 0.4416 -0.8692
vn -0.8692 0.4416 0.2225
vn 0.2217 -0.3718 0.9014
vn -0.9014 -0.3718 0.2217
vn 0.2217 -0.3718 -0.9014
vn 0.9014 -0.3718 0.2217
vn 0.1272 0.8735 -0.4698
vn -0.4698 0.8735 0.1272
vn 0.1272 0.8735 0.4698
vn -0.1272 0.8735 0.4698
vn 0.8692 0.4416 -0.2225
vn -0.8692 0.4416 -0.2225
vn -0.2225 0.4416 0.8692
vn 0.2225 0.4416 0.8692
vn 0.0468 0.9885 0.1439
vn -0.0468 0.9885 0.1439
vn -0.1439 0.9885 -0.0468
vn 0.1439 0.9885 -0.0468
vn 0.4698 0.8735 0.1272
vn -0.1272 0.8735 -0.4698
vn 0.4698 0.8735 -0.1272
vn -0.4698 0.8735 -0.1272
vn -0.0054 1.0000 0.0054
vn -0.0054 1.0000 -0.0054
vn 0.0054 1.0000 -0.0054
vn 0.0054 1.0000 0.0054
vn -0.1439 0.9885 0.0468
vn 0.0468 0.9885 -0.1439
vn 0.1439 0.9885 0.0468
vn -0.0468 0.9885 -0.1439
vn -0.1026 -0.8880 0.4482
vn -0.4482 -0.8880 -0.1026
vn 0.4482 -0.8880 -0.1026
vn -0.1026 -0.8880 -0.4482
vn 0.1026 -0.8880 0.4482
vn -0.4482 -0.8880 0.1026
vn 0.1026 -0.8880 -0.4482
vn 0.4482 -0.8880 0.1026
vn 0.6786 0.6786 -0.2811
vn -0.6786 0.6786 0.2811
vn -0.6786 -0.6786 0.2811
vn 0.6786 -0.6786 -0.2811
vn 0.2811 0.6786 -0.6786
vn -0.2811 0.6786 0.6786
vn -0.2811 -0.6786 0.6786
vn 0.2811 -0.6786 -0.6786
vn -0.2811 0.6786 -0.6786
vn 0.2811 0.6786 0.6786
vn 0.2811 -0.6786 0.6786
vn -0.2811 -0.6786 -0.6786
vn -0.6786 0.6786 -0.2811
vn 0.6786 0.6786 0.2811
vn 0.6786 -0.6786 0.2811
vn -0.6786 -0.6786 -0.2811
vn -1.0000 0.0000 0.0000
vn 0.0000 0.7071 -0.7071
vn 1.0000 0.0000 0.0000
vn 0.0000 -0.7071 0.7071
vn 0.0000 -0.7071 -0.7071
vn 0.0000 0.7071 0.7071
vn 0.0000 0.0000 1.0000
vn -0.7071 0.7071 0.0000
vn 0.0000 0.0000 -1.0000
vn 0.7071 -0.7071 -0.0000
vn -0.7071 -0.7071 0.0000
vn 0.7071 0.7071 -0.0000
vn -0.7071 0.0000 0.7071
vn -0.5000 0.7071 -0.5000
vn 0.7071 0.0000 -0.7071
vn 0.5000 -0.7071 0.5000
vn -0.5000 -0.7071 -0.5000
vn 0.5000 0.7071 0.5000
vn 0.7071 0.0000 0.7071
vn -0.5000 0.7071 0.5000
vn -0.7071 0.0000 -0.7071
vn 0.5000 -0.7071 -0.5000
vn -0.5000 -0.7071 0.5000
vn 0.5000 0.7071 -0.5000
usemtl Material
s off
f 1/1/1 2/2/1 4/3/1 3/4/1
f 9/5/2 10/6/2 8/7/2 7/8/2
f 7/8/3 8/7/3 6/9/3 5/10/3
f 11/11/4 12/12/4 2/13/4 1/14/4
f 9/15/5 7/8/5 5/10/5 11/16/5
f 10/17/6 4/18/6 2/19/6 12/20/6
f 8/7/7 10/17/7 12/20/7 6/9/7
f 3/21/8 9/15/8 11/16/8 1/22/8
f 5/10/9 6/9/9 12/12/9 11/11/9
f 3/4/10 4/3/10 10/6/10 9/5/10
f 23/23/11 19/24/11 32/25/11 35/26/11
f 27/27/12 26/28/12 19/24/12 20/29/12
f 21/30/13 23/23/13 17/31/13 18/32/13
f 29/33/14 24/34/14 16/35/14 27/36/14
f 24/37/15 22/38/15 15/39/15 16/40/15
f 25/41/16 28/42/16 13/43/16 14/44/16
f 14/45/17 13/46/17 22/38/17 24/37/17
f 25/47/18 14/44/18 24/34/18 29/33/18
f 20/29/19 19/24/19 23/23/19 21/30/19
f 15/39/20 22/38/20 33/48/20 34/49/20
f 17/31/21 23/23/21 35/26/21 36/50/21
f 18/32/22 25/47/22 29/33/22 21/51/22
f 18/52/23 17/53/23 28/42/23 25/41/23
f 21/51/24 29/33/24 27/36/24 20/54/24
f 16/55/25 15/56/25 26/28/25 27/27/25
f 22/38/26 13/46/26 38/57/26 33/48/26
f 33/48/27 38/57/27 46/58/27 41/59/27
f 37/60/28 36/61/28 44/62/28 45/63/28
f 34/49/29 33/48/29 41/59/29 42/64/29
f 38/65/30 37/60/30 45/63/30 46/66/30
f 28/42/31 17/53/31 36/61/31 37/60/31
f 26/28/32 15/56/32 34/67/32 31/68/32
f 13/43/33 28/42/33 37/60/33 38/65/33
f 19/24/34 26/28/34 31/68/34 32/25/34
f 98/69/35 101/70/35 49/71/35 50/72/35
f 100/73/36 99/74/36 53/75/36 54/76/36
f 95/77/37 96/78/37 48/79/37 51/80/37
f 97/81/38 98/82/38 50/83/38 39/84/38
f 36/50/39 35/26/39 43/85/39 44/86/39
f 32/25/40 31/68/40 30/87/40 40/88/40
f 31/68/41 34/67/41 42/89/41 30/87/41
f 35/26/42 32/25/42 40/88/42 43/85/42
f 39/84/43 50/83/43 58/90/43 47/91/43
f 48/79/44 39/84/44 47/91/44 56/92/44
f 52/93/45 51/80/45 59/94/45 60/95/45
f 49/71/46 54/96/46 62/97/46 57/98/46
f 99/74/47 102/99/47 52/100/47 53/75/47
f 101/70/48 100/101/48 54/96/48 49/71/48
f 102/102/49 95/77/49 51/80/49 52/93/49
f 96/78/50 97/81/50 39/84/50 48/79/50
f 56/92/51 47/91/51 55/103/51 63/104/51
f 60/95/52 59/94/52 66/105/52 67/106/52
f 57/98/53 62/97/53 69/107/53 64/108/53
f 61/109/54 60/110/54 67/111/54 68/112/54
f 51/80/55 48/79/55 56/92/55 59/94/55
f 54/76/56 53/75/56 61/109/56 62/113/56
f 50/72/57 49/71/57 57/98/57 58/114/57
f 53/75/58 52/100/58 60/110/58 61/109/58
f 68/112/59 67/111/59 76/115/59 77/116/59
f 65/117/60 64/108/60 73/118/60 74/119/60
f 69/120/61 68/112/61 77/116/61 78/121/61
f 66/105/62 63/104/62 72/122/62 75/123/62
f 47/91/63 58/90/63 65/124/63 55/103/63
f 59/94/64 56/92/64 63/104/64 66/105/64
f 62/113/65 61/109/65 68/112/65 69/120/65
f 58/114/66 57/98/66 64/108/66 65/117/66
f 78/121/67 77/116/67 85/125/67 86/126/67
f 75/123/68 72/122/68 80/127/68 83/128/68
f 71/129/69 74/130/69 82/131/69 70/132/69
f 72/122/70 71/129/70 70/132/70 80/127/70
f 64/108/71 69/107/71 78/133/71 73/118/71
f 67/106/72 66/105/72 75/123/72 76/134/72
f 63/104/73 55/103/73 71/129/73 72/122/73
f 55/103/74 65/124/74 74/130/74 71/129/74
f 70/132/75 82/131/75 89/135/75 79/136/75
f 80/127/76 70/132/76 79/136/76 87/137/76
f 84/138/77 83/128/77 90/139/77 91/140/77
f 81/141/78 86/142/78 93/143/78 88/144/78
f 74/119/79 73/118/79 81/141/79 82/145/79
f 77/116/80 76/115/80 84/146/80 85/125/80
f 73/118/81 78/133/81 86/142/81 81/141/81
f 76/134/82 75/123/82 83/128/82 84/138/82
f 94/147/83 90/148/83 87/149/83 79/150/83
f 92/151/84 91/152/84 90/148/84 94/147/84
f 93/153/85 92/151/85 94/147/85 88/154/85
f 88/154/86 94/147/86 79/150/86 89/155/86
f 83/128/87 80/127/87 87/137/87 90/139/87
f 86/126/88 85/125/88 92/156/88 93/157/88
f 82/145/89 81/141/89 88/144/89 89/158/89
f 85/125/90 84/146/90 91/159/90 92/156/90
f 40/88/91 30/87/91 97/81/91 96/78/91
f 44/86/92 43/85/92 95/77/92 102/102/92
f 41/59/93 46/58/93 100/101/93 101/70/93
f 45/63/94 44/62/94 102/99/94 99/74/94
f 30/87/95 42/89/95 98/82/95 97/81/95
f 43/85/96 40/88/96 96/78/96 95/77/96
f 46/66/97 45/63/97 99/74/97 100/73/97
f 42/64/98 41/59/98 101/70/98 98/69/98
f 103/160/99 107/161/99 108/162/99 104/163/99
f 104/163/100 108/162/100 109/164/100 105/165/100
f 105/166/101 109/167/101 110/168/101 106/169/101
f 106/169/102 110/168/102 107/161/102 103/160/102
f 107/161/103 111/170/103 112/171/103 108/162/103
f 108/162/104 112/171/104 113/172/104 109/164/104
f 109/167/105 113/173/105 114/174/105 110/168/105
f 110/168/106 114/174/106 111/170/106 107/161/106
f 111/170/107 115/175/107 116/176/107 112/171/107
f 112/171/108 116/176/108 117/177/108 113/172/108
f 113/173/109 117/178/109 118/179/109 114/174/109
f 114/174/110 118/179/110 115/175/110 111/170/110
f 115/175/111 119/180/111 120/181/111 116/176/111
f 116/176/112 120/181/112 121/182/112 117/177/112
f 117/178/113 121/183/113 122/184/113 118/179/113
f 118/179/114 122/184/114 119/180/114 115/175/114
f 119/185/100 123/186/100 124/187/100 120/188/100
f 120/188/99 124/187/99 125/189/99 121/190/99
f 121/191/102 125/192/102 126/193/102 122/194/102
f 122/194/101 126/193/101 123/186/101 119/185/101
f 123/186/104 127/195/104 128/196/104 124/187/104
f 124/187/103 128/196/103 129/197/103 125/189/103
f 125/192/106 129/198/106 130/199/106 126/193/106
f 126/193/105 130/199/105 127/195/105 123/186/105
f 127/195/108 131/200/108 132/201/108 128/196/108
f 128/196/107 132/201/107 133/202/107 129/197/107
f 129/198/110 133/203/110 134/204/110 130/199/110
f 130/199/109 134/204/109 131/200/109 127/195/109
f 131/200/112 103/160/112 104/163/112 132/201/112
f 132/201/111 104/163/111 105/165/111 133/202/111
f 133/203/114 105/166/114 106/169/114 134/204/114
f 134/204/113 106/169/113 103/160/113 131/200/113
f 135/205/115 136/206/115 138/207/115 137/208/115
f 137/208/116 138/207/116 142/209/116 141/210/116
f 141/210/117 142/209/117 140/211/117 139/212/117
f 139/212/118 140/211/118 136/213/118 135/214/118
f 137/215/119 141/210/119 139/212/119 135/216/119
f 142/209/120 138/217/120 136/218/120 140/211/120
f 143/219/115 144/220/115 146/221/115 145/222/115
f 145/222/116 146/221/116 150/223/116 149/224/116
f 149/224/117 150/223/117 148/225/117 147/226/117
f 147/226/118 148/225/118 144/227/118 143/228/118
f 145/229/119 149/224/119 147/226/119 143/230/119
f 150/223/120 146/231/120 144/232/120 148/225/120
f 151/233/121 152/234/121 154/235/121 153/236/121
f 153/236/122 154/235/122 158/237/122 157/238/122
f 157/238/123 158/237/123 156/239/123 155/240/123
f 155/240/124 156/239/124 152/241/124 151/242/124
f 153/243/125 157/238/125 155/240/125 151/244/125
f 158/237/126 154/245/126 152/246/126 156/239/126
f 159/247/121 160/248/121 162/249/121 161/250/121
f 161/250/122 162/249/122 166/251/122 165/252/122
f 165/252/123 166/251/123 164/253/123 163/254/123
f 163/254/124 164/253/124 160/255/124 159/256/124
f 161/257/125 165/252/125 163/254/125 159/258/125
f 166/251/126 162/259/126 160/260/126 164/253/126
f 167/261/127 168/262/127 170/263/127 169/264/127
f 169/264/128 170/263/128 174/265/128 173/266/128
f 173/266/129 174/265/129 172/267/129 171/268/129
f 171/268/130 172/267/130 168/269/130 167/270/130
f 169/271/131 173/266/131 171/268/131 167/272/131
f 174/265/132 170/273/132 168/274/132 172/267/132
f 175/275/127 176/276/127 178/277/127 177/278/127
f 177/278/128 178/277/128 182/279/128 181/280/128
f 181/280/129 182/279/129 180/281/129 179/282/129
f 179/282/130 180/281/130 176/283/130 175/284/130
f 177/285/131 181/280/131 179/282/131 175/286/131
f 182/279/132 178/287/132 176/288/132 180/281/132
f 183/289/133 184/290/133 186/291/133 185/292/133
f 185/292/134 186/291/134 190/293/134 189/294/134
f 189/294/135 190/293/135 188/295/135 187/296/135
f 187/296/136 188/295/136 184/297/136 183/298/136
f 185/299/137 189/294/137 187/296/137 183/300/137
f 190/293/138 186/301/138 184/302/138 188/295/138
f 191/303/133 192/304/133 194/305/133 193/306/133
f 193/306/134 194/305/134 198/307/134 197/308/134
f 197/308/135 198/307/135 196/309/135 195/310/135
f 195/310/136 196/309/136 192/311/136 191/312/136
f 193/313/137 197/308/137 195/310/137 191/314/137
f 198/307/138 194/315/138 192/316/138 196/309/138
